<?xml version="1.0" encoding="utf-8"?>
<!-- Generator: Adobe Illustrator 25.2.3, SVG Export Plug-In . SVG Version: 6.00 Build 0)  -->
<svg version="1.1" id="Capa_1" xmlns="http://www.w3.org/2000/svg" xmlns:xlink="http://www.w3.org/1999/xlink" x="0px" y="0px"
	 viewBox="0 0 141.73 141.73" style="enable-background:new 0 0 141.73 141.73;" xml:space="preserve">
<style type="text/css">
	.st0{fill:#E62928;}
	.st1{fill:none;}
	.st2{fill:#FFFFFF;}
	.st3{fill:#9F6126;}
</style>
<g>
	<g>
		<g>
			<g>
				<polygon class="st0" points="69.89,69.74 69.89,65.78 67.81,65.78 67.81,63.2 65.25,63.2 65.25,61.53 40.11,61.53 40.11,63.2 
					37.55,63.2 37.55,65.78 34.67,65.78 34.67,69.74 30.83,69.74 30.83,94.98 34.67,94.98 34.67,99.23 37.55,99.23 37.55,102.12 
					40.11,102.12 40.11,103.79 65.25,103.79 65.25,102.12 67.81,102.12 67.81,99.23 69.89,99.23 69.89,94.98 74.06,94.98 
					74.06,69.74 				"/>
			</g>
			<g>
				<polygon class="st1" points="69.89,69.74 69.89,65.78 67.81,65.78 67.81,63.2 65.25,63.2 65.25,61.53 40.11,61.53 40.11,63.2 
					37.55,63.2 37.55,65.78 34.67,65.78 34.67,69.74 30.83,69.74 30.83,94.98 34.67,94.98 34.67,99.23 37.55,99.23 37.55,102.12 
					40.11,102.12 40.11,103.79 65.25,103.79 65.25,102.12 67.81,102.12 67.81,99.23 69.89,99.23 69.89,94.98 74.06,94.98 
					74.06,69.74 				"/>
			</g>
		</g>
		<g>
			<rect x="35.15" y="82.65" class="st2" width="7.26" height="7.26"/>
			<rect x="42.18" y="90.13" class="st2" width="7.94" height="7.94"/>
		</g>
	</g>
	<g>
		<g>
			<g>
				<polygon class="st0" points="93.71,83.15 93.71,79.19 91.63,79.19 91.63,76.61 89.07,76.61 89.07,74.94 63.93,74.94 
					63.93,76.61 61.37,76.61 61.37,79.19 58.49,79.19 58.49,83.15 54.64,83.15 54.64,108.39 58.49,108.39 58.49,112.64 
					61.37,112.64 61.37,115.53 63.93,115.53 63.93,117.2 89.07,117.2 89.07,115.53 91.63,115.53 91.63,112.64 93.71,112.64 
					93.71,108.39 97.87,108.39 97.87,83.15 				"/>
			</g>
			<g>
				<polygon class="st1" points="93.71,83.15 93.71,79.19 91.63,79.19 91.63,76.61 89.07,76.61 89.07,74.94 63.93,74.94 
					63.93,76.61 61.37,76.61 61.37,79.19 58.49,79.19 58.49,83.15 54.64,83.15 54.64,108.39 58.49,108.39 58.49,112.64 
					61.37,112.64 61.37,115.53 63.93,115.53 63.93,117.2 89.07,117.2 89.07,115.53 91.63,115.53 91.63,112.64 93.71,112.64 
					93.71,108.39 97.87,108.39 97.87,83.15 				"/>
			</g>
		</g>
		<g>
			<rect x="58.97" y="96.06" class="st2" width="7.26" height="7.26"/>
			<rect x="66" y="103.54" class="st2" width="7.94" height="7.94"/>
		</g>
	</g>
	<polygon class="st3" points="71.15,70.98 71.15,63.38 77.96,63.18 77.96,55.57 85.61,55.57 85.69,42.36 79.96,42.36 79.96,49.97 
		64.75,49.77 64.67,57.22 57.14,57.17 57.14,63.38 49.74,63.38 49.74,55.57 55.74,55.57 55.82,48.22 62.95,48.17 63.15,40.56 
		78.16,40.16 78.36,32.76 93.17,32.76 93.17,24.95 109.98,25.15 110,42.36 95.29,42.36 95.22,58.05 87.41,57.98 87.49,65.33 
		80.21,65.33 80.21,70.73 80.28,77.79 71.2,77.71 	"/>
</g>
</svg>
